<svg version="1" xmlns="http://www.w3.org/2000/svg" width="1357.333" height="1357.333" viewBox="0 0 1018.000000 1018.000000"><path d="M510 198.6c-18.7 3.9-30.5 18.8-29.5 37.4.8 14.2 7.5 24.2 20.1 30.2 6.5 3 9.8 3.7 17.9 3.9 5.1.1 18.5-2.8 18.5-4 0-.4 1.6-1.5 3.5-2.5 1.9-1.1 4.1-2.9 4.9-4.1 1.3-2 1.1-2.4-3.6-6.8-4.8-4.5-4.9-4.6-6.8-2.7-3.1 3.1-9.3 5.8-14.3 6.3-2.6.2-4.7 0-4.7-.5s-.4-.7-.8-.4c-1.8 1.1-8.2-1.6-11.6-4.9-6.2-6-8.3-14.6-5.7-24.1 1.7-6.3 8.6-12.7 14.8-13.9 1.5-.2 3.8-.7 5-.9 3-.6 13.4 2.4 14 4.1.3.7 1 1.3 1.5 1.3.6 0 1.6.7 2.2 1.5.9 1.3 1.9.7 6.4-3.5l5.4-5.1-3.4-3c-8-7.2-22.1-10.6-33.8-8.3zM328.4 233.7l.1 34.8 7.8.3c5.7.2 7.7 0 7.8-1 .1-.7.2-7.2.3-14.3l.1-13 15.3-.1c9.3 0 15.5.3 15.9.9.4.6.7 6.9.7 14.1l.1 13.1 7.4.3c4.2.2 7.7-.1 8-.7.5-.8.7-65.4.2-68.4 0-.4-3.6-.7-8-.7h-7.9l.2 13.8.1 13.7-15.5.1c-8.5 0-15.7-.3-16-.8-.3-.4-.5-6.6-.5-13.8l.1-13H328.3l.1 34.7zM428.1 205.5c-1.7 3.6-3.1 6.8-3.1 7.1 0 .2-1.8 4.3-4 9s-4 8.7-4 8.9c0 .2-1.3 3.2-2.9 6.7-3 6.4-10.2 22.5-12.7 28.5L400 269h16.8l2.2-6.3c1.3-3.4 2.8-6.8 3.3-7.5.7-.9 4.9-1.2 17-1l16.1.3 2.9 7.2 2.9 7.3h8.4c4.6 0 8.4-.2 8.4-.4s-2.2-5.3-4.9-11.4c-2.7-6.1-5.6-12.5-6.4-14.4-.8-1.8-2.5-5.6-3.7-8.3-1.3-2.8-3.1-6.8-4-9-1-2.2-2.9-6.6-4.4-9.8-1.4-3.1-3.7-8.2-5.1-11.2L447 199h-15.7l-3.2 6.5zm12.9 14.7c0 1 .5 1.8 1.2 1.8.6 0 .9.3.6.6-.3.3 1.1 4.5 3.2 9.5 2.1 4.9 3.5 9.1 3.2 9.3-.6.3-20.5.1-20.9-.3-.2-.2 9.1-22.4 10.1-24 .7-1.1 1-1.1 1.7 0 .5.8.9 2.2.9 3.1zM558 234v35h8c9 0 8.3 1 8.1-10.5l-.1-7 4.7-4.9 4.7-4.9 2.3 2.9c1.4 1.6 4.2 4.9 6.4 7.4 2.1 2.5 4.7 5.6 5.6 7 1 1.4 3 3.8 4.5 5.5 1.5 1.6 2.8 3.3 2.8 3.7 0 .5 4.3.8 9.5.8s9.5-.3 9.5-.6-.6-1.1-1.2-1.9c-.7-.7-2.2-2.5-3.3-4.1-1.1-1.5-3.8-5-6.1-7.8-2.2-2.8-7.5-9.4-11.7-14.7l-7.6-9.6 4.5-4.9c7.7-8.3 23.2-24.9 24-25.7.4-.4-3.3-.7-8.3-.7h-9.1l-5 5.2c-2.8 2.9-9.8 10.2-15.6 16.3l-10.4 11v-15c0-8.3-.1-15.6-.1-16.3-.1-.8-2.4-1.2-8.1-1.2h-8v35zM710.5 380.2c1 30.3 1.2 36.2 1.9 51.8 1 20.4 1.5 30.2 2.1 44.5.9 21.8 1.5 33.5 2 44.5.3 5.8.7 15.9 1 22.5.5 13.5 1.3 30.5 2.1 47.5.3 6.3.7 15.8.9 21 .3 9.3 1 24.8 2.1 46.5.5 11.8 1 23.4 1.9 47 .7 17.5 1.1 22.4 1.9 23.2.4.5 199.3.8 211.2.4l2.2-.1-.2-35.8-.1-35.7h-16.7c-9.2-.1-17.1-.4-17.4-.8-.4-.4-.9-2.9-1.1-5.5-.1-2.6-.5-6.3-.7-8.2-.2-1.9-.7-6.7-1.1-10.5-.3-3.9-.8-9.3-1-12-.3-2.8-.7-7.3-.9-10-.3-2.8-.8-7.7-1.1-11-.4-3.3-.8-7.8-1-10-.2-2.2-.4-4-.5-4 0 0-.3-2.7-.5-6s-.7-8.7-1-12c-1.1-9.7-1.2-11.6-1.9-19.5-.4-4.1-.9-9.3-1.1-11.5-.3-2.2-.7-7.2-1-11-.2-3.9-.5-7-.6-7 0 0-.2-1.6-.4-3.5s-.6-6.4-1-10c-.3-3.6-.8-8.1-1-10-1-10.3-1.7-17.9-2-21.5-.2-2.2-.7-7.4-1-11.5-.4-4.1-.8-8.7-.9-10.3 0-1.5-.4-2.7-.8-2.7-.5 0-.6 4.8-.3 10.7 1.7 35.4 2.6 56.2 3 65.3.7 16.3 1.6 35.9 2 44 .2 4.7.7 14.6 1 22 .3 7.4.8 17.8 1 23 .3 5.2.7 15.8 1 23.4.3 7.6.7 15.2.9 16.8.3 2.3-.1 2.8-1.8 2.9-2.8 0-20.7-.2-58.1-.7-17-.2-41.2-.5-53.7-.7-12.5-.1-23-.6-23.4-1-.4-.4-.9-5.8-1-12-.1-6.1-.5-19.8-.8-30.2-.7-21.9-1.5-48.3-2.1-70.5-.5-16.4-1.2-32.3-2-43-.2-3.6-.7-10.1-.9-14.5-.3-4.4-.8-11.8-1.2-16.5-.3-4.7-.7-11-.9-14-.2-3-.6-9.1-.9-13.5-.8-10.2-1.7-23.4-2.1-30.5-1.1-19.8-1.7-28.6-2.2-29.2-.2-.5-.3-.8-.1-.8.2 0 13.4 4.3 29.3 9.6 16 5.3 29.5 9.7 30 9.8.6.2 1.7.6 2.5.9 2 .7 24.3 8.1 25.3 8.3.4.1.8.2 1 .3 1.3.7 42.2 14 42.4 13.7.3-.3-8.1-3.8-9.7-4.1-.3-.1-2.2-.9-4.4-1.8-2.1-.9-4.1-1.7-4.3-1.7-.3 0-3.1-1.1-6.2-2.4-3.1-1.3-8.7-3.6-12.6-5.1-3.8-1.5-8.3-3.3-10-4-1.6-.7-11.8-4.8-22.5-9s-21.4-8.5-23.7-9.6c-2.4-1-4.7-1.9-5.2-1.9s-2.2-.7-3.8-1.5c-1.5-.8-11.6-4.9-22.3-9.1-10.7-4.1-20.4-7.9-21.5-8.4-6.1-2.7-14.6-6-15.6-6-.9 0-1 5.6-.4 22.2zm96.1 304.1c.3.3.7 4 .7 8.1l.2 7.6-4.7.1c-2.7.1-5.4.2-6 .3-.7.1-3.2-.1-5.5-.5-2.4-.3-4.3-.3-4.3 0 0 .7-20.6.4-22.6-.3-.8-.3-1.4-.2-1.4.2 0 .8-10.1.5-10.9-.4-.2-.2-.5-3.6-.5-7.5-.1-5.9.2-7.3 1.6-7.8 2.1-.8 52.6-.6 53.4.2zm20.7-.4c1.5.1 1.7 1.2 1.7 8.1v8l-3 .1c-12.8.4-12 1-12-8 0-9.4-.8-8.9 13.3-8.2zm20.5 0c2.1.1 2.2.5 2.2 8.1 0 8.8.6 8.2-7.5 8.2s-7.5.7-7.5-8.5v-8.2l5.3.2c2.8 0 6.2.2 7.5.2zM142.9 366.4c-.2.2-3.5.7-7.4 1-3.8.3-8.8.9-11 1.2-6.7 1-26.4 6.3-29.5 7.9-1.7.9-3 1.2-3 .9 0-.4-.8 0-1.7.8-1 .8-3.4 2.1-5.3 2.8-4.2 1.6-13.4 7.1-13.8 8.2-.2.4-.9.8-1.6.8-2.1 0-16.4 13.9-21 20.4-3.9 5.4-11.6 20-12.4 23.7-.2.8-1 3.9-1.8 6.9-4.2 16.6-2.8 39.1 3.5 54.8 5.2 13 18.7 28.1 32.9 36.9 3.8 2.3 17.9 9.4 19.7 9.9.6.1 4.4 1.4 8.5 2.9 6.5 2.3 22.8 7.3 34 10.5 6 1.7 27.4 7.2 29.5 7.6 1.1.2 7.4 2 14 3.9 6.6 2 12.7 3.7 13.5 4 24.2 6.6 45.3 20.2 51.9 33.4 4.8 9.5 6.7 22.4 4.8 32.1-.4 2.5-1.1 5.6-1.3 7-2 10.1-15.3 26.4-26.6 32.8-8.9 4.9-22.2 9.6-31.3 10.8-1.6.3-3.9.7-5.1.9-12.7 2.7-47 2.2-61.9-1-1.6-.3-3.9-.8-5-1-6.3-1.2-8.9-1.9-18-4.7-5.5-1.7-10.3-3.1-10.7-3-.5.1-.8-.2-.8-.8 0-.5-.6-1-1.4-1-1.3 0-15.5-6.6-20.1-9.3-10.2-6.1-18.9-12.4-23.7-17.2l-2.7-2.7-3.7 7.4c-2 4-4.9 9.5-6.4 12.3-5.1 9.4-5.2 9.2 5 17.6 9.5 7.8 34.7 21.9 39.3 21.9.7 0 1.7.4 2.3.8.7.7 10.5 4.1 13.4 4.7.3.1 2.5.7 5 1.4s5.3 1.5 6.2 1.7c7 1.6 15.3 3.2 20.1 3.9 2 .3 5.2.7 7 1 6.1.9 29.9 2 31.7 1.5.3-.1 4.6-.3 9.5-.5 9-.3 18.1-1.1 22.6-2 1.3-.3 4-.8 5.9-1.1 4.7-.9 19.8-4.9 23.5-6.3 4.6-1.8 18.9-8.5 19.5-9.1.3-.3 2.3-1.7 4.5-3s4.6-3 5.3-3.7c.7-.7 1.6-1.3 2-1.3 1.1 0 11.4-10.1 14.2-14 1.4-1.8 3-3.8 3.5-4.4 3.6-4.1 10.3-18.8 12.5-27.5 1.7-6.3 3.1-16.8 3.2-22.6 0-1.9-1.2-15-1.6-17.5-4.9-28.4-25.6-50-60.6-63-4.7-1.8-8.9-3.3-9.5-3.4-.5-.1-1.4-.4-2-.7-.8-.5-3.6-1.4-8-2.5-.5-.1-4.6-1.4-9-2.8s-9.2-2.7-10.5-3c-1.4-.2-2.5-.5-2.5-.6 0-.1-.7-.3-1.5-.5-1.9-.4-32.3-8.3-37-9.6-1.9-.5-4.2-1.1-5.1-1.3-.9-.3-4.9-1.4-9-2.7-4.1-1.2-8.3-2.4-9.3-2.6-8.6-1.5-30.3-13.8-37.3-21.1C69.7 483 66.2 467 70.5 445.6c1.5-7.6 8.2-18.5 15.5-25.4 16.2-15.1 40.7-22.5 74.5-22.5 8.7 0 20.7.8 25.6 1.9 1.3.2 4 .7 5.9 1 3.3.5 7.3 1.5 19.6 4.9 11.9 3.3 29.3 10.9 39 17.1 6 3.8 7.6 3.6 8.8-1.2.4-1.3 1.7-4.8 3-7.7 4.2-9.4 7-16.7 6.5-17.1-.2-.2-3.9-2.5-8.2-5-10.2-6.1-25.8-12.7-37.7-16-5.2-1.4-10.8-3.1-12.5-3.6-1.6-.5-6.8-1.6-11.5-2.4-4.7-.9-9.8-1.8-11.5-2.1-3.4-.7-44-1.6-44.6-1.1zM354.9 371c0 1.1-.1 7.6-.1 14.5s.1 13.2.1 14c.1 1.3 7.6 1.5 61.4 1.5h61.4l-.1 159-.1 159 18.5-.2 18.5-.3V401h123.2v-32H496.3c-140.6 0-141.3 0-141.4 2zM883.1 439.5c.1 1.9 1.8 5.1 1.8 3.5 0-.8-.4-2.2-.9-3-.5-.8-.9-1.1-.9-.5z"/><path d="M884.1 446.6c0 1.1.3 1.4.6.6.3-.7.2-1.6-.1-1.9-.3-.4-.6.2-.5 1.3zM1014.8 648.6c-.2.1-3.9.5-8.3.9s-8.2.8-8.5 1c-.3.2-3.7.6-7.5.9-3.9.3-8.1.8-9.5 1-2.3.4-10.4 1.3-19.5 2.2-5.8.6-11.8 1.4-13.5 1.9-1.3.4-1.5 5.3-1.6 35.5 0 24.3.3 35 1 35 .6 0 8.1-1.8 16.6-4.1 8.5-2.2 16.4-4.2 17.5-4.3 1.1-.2 2.7-.6 3.5-.9 1.3-.5 15.6-4.3 20-5.2.8-.2 4-1 7-1.8l5.5-1.4.3-30.5c.2-26.7.1-30.5-1.3-30.5-.8 0-1.6.1-1.7.3zm-15.7 30.1c.8 4.8.3 12.5-.8 13.4-.7.6-1.3.9-1.3.5 0-.3-1-.2-2.3.3-1.3.5-4.1 1.2-6.3 1.5-2.1.4-4.7.9-5.6 1.2-2 .6-5.1 1.3-9.4 2.1l-3.2.5.2-8.1c0-4.4.3-8.1.6-8.1s3.4-.5 7-1 8.8-1.3 11.5-1.6c2.8-.4 5.2-.8 5.4-1 .8-.7 4.1-.4 4.2.3z"/></svg>