<?xml version="1.0" encoding="utf-8"?>
<!-- Generator: Adobe Illustrator 21.0.0, SVG Export Plug-In . SVG Version: 6.00 Build 0)  -->
<!DOCTYPE svg PUBLIC "-//W3C//DTD SVG 1.1//EN" "http://www.w3.org/Graphics/SVG/1.1/DTD/svg11.dtd">
<svg version="1.1" id="Layer_1" xmlns="http://www.w3.org/2000/svg" xmlns:xlink="http://www.w3.org/1999/xlink" x="0px" y="0px"
	 viewBox="0 0 552.9 139.3" style="enable-background:new 0 0 552.9 139.3;" xml:space="preserve">
<g>
	<path style="fill:#8A8C8E;" d="M177.9,7.3c-0.4-0.5-0.9-0.9-1.6-1.3c-0.7-0.4-1.4-0.8-2.2-1.1c-0.8-0.3-1.7-0.6-2.7-0.8
		c-1-0.2-2-0.3-3-0.3c-2.7,0-4.7,0.5-5.9,1.5c-1.3,1-1.9,2.4-1.9,4.2c0,0.9,0.2,1.7,0.5,2.3c0.4,0.6,0.9,1.1,1.7,1.6
		c0.8,0.4,1.7,0.8,2.9,1.1c1.1,0.3,2.5,0.7,4.1,1c1.8,0.4,3.4,0.8,4.9,1.3c1.5,0.5,2.7,1.1,3.7,1.9c1,0.8,1.8,1.7,2.3,2.7
		c0.5,1.1,0.8,2.4,0.8,4c0,1.7-0.3,3.1-1,4.3c-0.7,1.2-1.5,2.2-2.7,3c-1.1,0.8-2.5,1.4-4,1.8c-1.5,0.4-3.2,0.6-5,0.6
		c-2.7,0-5.2-0.4-7.6-1.2c-2.4-0.8-4.6-2-6.5-3.6l2.1-3.7c0.5,0.6,1.2,1.1,2,1.7c0.8,0.6,1.8,1.1,2.8,1.5c1.1,0.4,2.2,0.8,3.4,1.1
		c1.2,0.3,2.5,0.4,3.8,0.4c2.5,0,4.4-0.4,5.8-1.3c1.4-0.9,2.1-2.2,2.1-4c0-1-0.2-1.8-0.7-2.5c-0.4-0.7-1.1-1.2-1.9-1.7
		c-0.8-0.5-1.9-0.9-3.2-1.3c-1.3-0.4-2.7-0.8-4.3-1.1c-1.8-0.4-3.3-0.9-4.6-1.4c-1.3-0.5-2.5-1.1-3.3-1.8c-0.9-0.7-1.6-1.5-2-2.5
		c-0.5-1-0.7-2.2-0.7-3.5c0-1.7,0.3-3.1,0.9-4.4c0.6-1.3,1.5-2.3,2.6-3.2c1.1-0.9,2.4-1.5,4-2c1.5-0.4,3.2-0.7,5-0.7
		c2.3,0,4.5,0.4,6.4,1.1c1.9,0.7,3.6,1.7,5,2.9L177.9,7.3z"/>
	<path style="fill:#8A8C8E;" d="M190.9,17.1c0-2.1,0.4-4.2,1.1-6.2c0.7-2.1,1.8-3.9,3.2-5.6c1.4-1.6,3.2-3,5.2-4
		c2.1-1,4.4-1.5,7-1.5c3.1,0,5.8,0.7,8,2.1c2.2,1.4,3.9,3.2,4.9,5.5l-3.5,2.2c-0.5-1.1-1.1-2-1.9-2.8c-0.7-0.7-1.5-1.4-2.4-1.8
		c-0.9-0.5-1.8-0.8-2.7-1c-0.9-0.2-1.8-0.3-2.7-0.3c-1.9,0-3.6,0.4-5.1,1.2c-1.5,0.8-2.7,1.8-3.7,3.1c-1,1.3-1.8,2.7-2.3,4.4
		c-0.5,1.6-0.8,3.2-0.8,4.9c0,1.8,0.3,3.6,0.9,5.2c0.6,1.6,1.4,3.1,2.5,4.4c1.1,1.3,2.3,2.3,3.8,3c1.5,0.8,3.1,1.1,4.8,1.1
		c0.9,0,1.8-0.1,2.8-0.3c1-0.2,1.9-0.6,2.8-1.1c0.9-0.5,1.7-1.1,2.5-1.9c0.8-0.8,1.4-1.7,1.9-2.8l3.7,2c-0.6,1.3-1.3,2.5-2.3,3.4
		c-1,1-2.1,1.8-3.4,2.5c-1.3,0.7-2.6,1.2-4,1.6c-1.4,0.4-2.8,0.5-4.1,0.5c-2.4,0-4.6-0.5-6.6-1.6c-2-1-3.7-2.4-5.2-4.1
		c-1.5-1.7-2.6-3.6-3.4-5.7C191.3,21.5,190.9,19.3,190.9,17.1z"/>
	<path style="fill:#8A8C8E;" d="M260.2,0v34.7h-4.4V18.9h-19.1v15.8h-4.4V0h4.4v15h19.1V0H260.2z"/>
	<path style="fill:#8A8C8E;" d="M287.4,0h3.7l14.2,34.7h-4.7l-4.1-10.2H282l-4.1,10.2h-4.7L287.4,0z M295.5,21.1l-6.3-16l-6.5,16
		H295.5z"/>
	<path style="fill:#8A8C8E;" d="M327.7,31c2,0,3.7-0.4,5-1.2c1.3-0.8,2.4-1.8,3.2-3.1c0.8-1.3,1.4-2.7,1.7-4.3
		c0.3-1.6,0.5-3.3,0.5-4.9V0h4.4v17.6c0,2.3-0.3,4.6-0.8,6.7c-0.5,2.1-1.4,4-2.6,5.5c-1.2,1.6-2.7,2.9-4.6,3.8
		c-1.9,0.9-4.1,1.4-6.8,1.4c-2.8,0-5.1-0.5-7-1.5c-1.9-1-3.4-2.3-4.6-3.9c-1.2-1.6-2-3.5-2.5-5.6c-0.5-2.1-0.8-4.3-0.8-6.5V0h4.4
		v17.6c0,1.7,0.2,3.4,0.5,5c0.3,1.6,0.9,3,1.7,4.3c0.8,1.2,1.9,2.2,3.2,3C324,30.6,325.7,31,327.7,31z"/>
	<path style="fill:#8A8C8E;" d="M386.2,34.7V7.9l-11.5,20.6h-2.5L360.6,7.9v26.8h-4.4V0h4.6l12.6,22.5L386,0h4.6v34.7H386.2z"/>
	<path style="fill:#8A8C8E;" d="M431.4,25.8c0,1.3-0.3,2.6-0.8,3.7c-0.5,1.1-1.3,2.1-2.2,2.8c-0.9,0.8-2,1.4-3.2,1.8
		c-1.2,0.4-2.5,0.6-3.9,0.6h-16.5V0H422c1.2,0,2.3,0.3,3.3,0.8c1,0.5,1.8,1.2,2.5,2s1.2,1.8,1.6,2.8c0.4,1.1,0.6,2.1,0.6,3.2
		c0,1.7-0.4,3.3-1.3,4.8c-0.9,1.5-2.1,2.6-3.7,3.3c2,0.6,3.6,1.7,4.7,3.3C430.8,21.7,431.4,23.6,431.4,25.8z M409.2,3.8v11.6h11
		c0.8,0,1.5-0.2,2.2-0.5c0.7-0.3,1.2-0.7,1.7-1.2c0.5-0.5,0.8-1.1,1.1-1.8c0.3-0.7,0.4-1.4,0.4-2.2c0-0.8-0.1-1.6-0.4-2.3
		c-0.3-0.7-0.6-1.3-1.1-1.9c-0.4-0.5-1-0.9-1.6-1.2c-0.6-0.3-1.3-0.4-2-0.4H409.2z M427,25c0-0.8-0.1-1.5-0.4-2.3
		c-0.3-0.7-0.7-1.4-1.1-1.9c-0.5-0.6-1-1-1.7-1.3c-0.7-0.3-1.4-0.5-2.2-0.5h-12.4v11.9h12.1c0.8,0,1.6-0.2,2.2-0.5
		c0.7-0.3,1.3-0.8,1.8-1.3c0.5-0.5,0.9-1.2,1.2-1.9C426.8,26.5,427,25.8,427,25z"/>
	<path style="fill:#8A8C8E;" d="M457.7,31c2,0,3.7-0.4,5-1.2c1.3-0.8,2.4-1.8,3.2-3.1c0.8-1.3,1.4-2.7,1.7-4.3
		c0.3-1.6,0.5-3.3,0.5-4.9V0h4.4v17.6c0,2.3-0.3,4.6-0.8,6.7c-0.5,2.1-1.4,4-2.6,5.5c-1.2,1.6-2.7,2.9-4.6,3.8
		c-1.9,0.9-4.1,1.4-6.8,1.4c-2.8,0-5.1-0.5-7-1.5c-1.9-1-3.4-2.3-4.6-3.9c-1.2-1.6-2-3.5-2.5-5.6c-0.5-2.1-0.8-4.3-0.8-6.5V0h4.4
		v17.6c0,1.7,0.2,3.4,0.5,5c0.3,1.6,0.9,3,1.7,4.3c0.8,1.2,1.9,2.2,3.2,3C454.1,30.6,455.7,31,457.7,31z"/>
	<path style="fill:#8A8C8E;" d="M486.2,34.7V0h14.9c1.5,0,2.9,0.3,4.2,1c1.3,0.6,2.4,1.5,3.3,2.5c0.9,1.1,1.7,2.2,2.2,3.6
		c0.5,1.3,0.8,2.7,0.8,4c0,1.2-0.2,2.4-0.5,3.5c-0.3,1.1-0.8,2.1-1.5,3.1c-0.6,0.9-1.4,1.7-2.3,2.3c-0.9,0.7-1.9,1.1-3,1.4l8.4,13.3
		h-5l-7.9-12.5h-9.2v12.5H486.2z M490.6,18.3h10.5c0.9,0,1.7-0.2,2.5-0.6s1.4-0.9,1.9-1.6c0.5-0.7,0.9-1.4,1.2-2.3
		c0.3-0.9,0.4-1.8,0.4-2.7c0-1-0.2-1.9-0.5-2.8c-0.3-0.9-0.8-1.6-1.4-2.3c-0.6-0.7-1.2-1.2-2-1.6c-0.8-0.4-1.6-0.6-2.4-0.6h-10.2
		V18.3z"/>
	<path style="fill:#8A8C8E;" d="M548.7,30c-3.1,3.3-6.6,4.9-10.6,4.9c-2.3,0-4.5-0.5-6.4-1.5c-2-1-3.7-2.3-5.1-4
		c-1.4-1.6-2.6-3.5-3.4-5.6c-0.8-2.1-1.2-4.3-1.2-6.6c0-2.3,0.4-4.6,1.2-6.7s1.9-4,3.4-5.6c1.4-1.6,3.1-2.9,5.1-3.8
		c2-0.9,4.1-1.4,6.5-1.4c3.4,0,6.1,0.7,8.3,2.1c2.2,1.4,3.8,3.2,5,5.5L548,9.7c-1-2-2.4-3.5-4.2-4.5c-1.7-1-3.7-1.5-5.8-1.5
		c-1.8,0-3.4,0.4-4.8,1.1c-1.4,0.8-2.7,1.8-3.7,3c-1,1.3-1.8,2.7-2.3,4.4c-0.6,1.6-0.8,3.3-0.8,5.1c0,1.9,0.3,3.6,0.9,5.3
		c0.6,1.6,1.5,3.1,2.5,4.4c1.1,1.3,2.3,2.2,3.8,3c1.5,0.7,3.1,1.1,4.8,1.1c3.8,0,7.2-1.8,10.2-5.5v-4.8h-7.5v-3.3h11.2v17.3h-3.7V30
		z"/>
</g>
<g>
	<polygon style="fill:#8A8C8E;" points="154.5,47.8 162.3,47.8 162.3,67.9 166.2,67.9 166.2,47.8 174,47.8 174,44.3 154.5,44.3 	"/>
	<path style="fill:#8A8C8E;" d="M197.9,47.9c-1-1.1-2.1-2-3.5-2.7c-1.4-0.7-2.9-1.1-4.6-1.1c-1.6,0-3.1,0.3-4.5,1
		c-1.4,0.7-2.5,1.5-3.5,2.6c-1,1.1-1.8,2.4-2.3,3.8c-0.6,1.4-0.8,2.9-0.8,4.5c0,1.5,0.3,3,0.8,4.4c0.5,1.4,1.3,2.7,2.3,3.8
		c1,1.1,2.2,2,3.5,2.7c1.4,0.7,2.9,1,4.6,1c1.6,0,3.1-0.3,4.5-1c1.4-0.7,2.5-1.5,3.5-2.6c1-1.1,1.8-2.4,2.3-3.8
		c0.6-1.4,0.8-2.9,0.8-4.5c0-1.5-0.3-2.9-0.8-4.4C199.6,50.3,198.9,49,197.9,47.9z M197.1,56.1c0,1-0.2,2-0.5,3
		c-0.3,1-0.8,1.9-1.4,2.7c-0.6,0.8-1.4,1.4-2.3,1.9c-0.9,0.5-1.9,0.7-3,0.7c-1.1,0-2.1-0.2-2.9-0.7c-0.9-0.5-1.7-1.1-2.3-1.8
		c-0.6-0.8-1.1-1.7-1.5-2.7c-0.4-1-0.5-2.1-0.5-3.2c0-1,0.2-2.1,0.5-3.1c0.3-1,0.8-1.9,1.5-2.7c0.6-0.8,1.4-1.4,2.3-1.9
		c0.9-0.5,1.9-0.7,3-0.7c1.1,0,2,0.2,2.9,0.7c0.9,0.5,1.7,1.1,2.3,1.8c0.6,0.8,1.1,1.7,1.5,2.7C196.9,53.9,197.1,55,197.1,56.1z"/>
	<polygon style="fill:#8A8C8E;" points="227.8,62.7 224.4,54.5 222.2,49.2 216.5,62.7 209.2,44.3 205,44.3 214.9,67.9 218,67.9 
		222.2,58 226.3,67.9 229.5,67.9 239.3,44.3 235.1,44.3 	"/>
	<polygon style="fill:#8A8C8E;" points="261.9,60.9 248.6,44.3 245.7,44.3 245.7,67.9 249.5,67.9 249.5,51.6 262.6,67.9 265.7,67.9 
		265.7,44.3 261.9,44.3 	"/>
	<path style="fill:#8A8C8E;" d="M289.1,56.5c-0.7-0.5-1.6-0.9-2.5-1.3c-1-0.3-2-0.6-3.2-0.9c-1-0.2-1.9-0.5-2.6-0.7
		c-0.7-0.2-1.3-0.4-1.7-0.7c-0.4-0.2-0.7-0.5-0.9-0.8c-0.2-0.3-0.3-0.7-0.3-1.3c0-1,0.3-1.7,1-2.3c0.7-0.6,1.9-0.9,3.5-0.9
		c0.6,0,1.3,0.1,1.8,0.2c0.6,0.1,1.1,0.3,1.6,0.5c0.5,0.2,1,0.4,1.3,0.7c0.4,0.2,0.7,0.5,0.9,0.8l0.5,0.5l1.9-3.3l-0.3-0.3
		c-1-0.8-2.1-1.5-3.4-2c-1.3-0.5-2.7-0.7-4.3-0.7c-1.2,0-2.3,0.2-3.4,0.4c-1.1,0.3-2,0.8-2.8,1.4c-0.8,0.6-1.4,1.4-1.8,2.3
		c-0.4,0.9-0.7,1.9-0.7,3.1c0,1,0.2,1.8,0.5,2.5c0.3,0.7,0.8,1.3,1.5,1.8c0.6,0.5,1.4,0.9,2.3,1.2c0.9,0.3,1.9,0.6,3.1,0.9
		c1,0.3,1.9,0.5,2.8,0.7c0.8,0.2,1.4,0.5,1.9,0.8c0.5,0.3,0.8,0.6,1.1,1c0.2,0.3,0.3,0.8,0.3,1.3c0,1-0.4,1.7-1.1,2.1
		c-0.8,0.5-2,0.8-3.5,0.8c-0.8,0-1.6-0.1-2.4-0.3c-0.8-0.2-1.5-0.4-2.1-0.7c-0.7-0.3-1.2-0.6-1.8-0.9c-0.5-0.3-0.9-0.7-1.2-1
		l-0.5-0.5l-1.9,3.4l0.3,0.3c1.3,1.1,2.8,1.9,4.4,2.5c1.6,0.6,3.3,0.8,5.1,0.8c1.2,0,2.3-0.1,3.4-0.4c1.1-0.3,2-0.7,2.8-1.2
		c0.8-0.6,1.4-1.3,1.9-2.1c0.5-0.9,0.7-1.9,0.7-3c0-1.1-0.2-2-0.6-2.8C290.4,57.7,289.8,57,289.1,56.5z"/>
	<polygon style="fill:#8A8C8E;" points="314,54 302.6,54 302.6,44.3 298.8,44.3 298.8,67.9 302.6,67.9 302.6,57.6 314,57.6 
		314,67.9 317.9,67.9 317.9,44.3 314,44.3 	"/>
	<rect x="328.5" y="44.3" style="fill:#8A8C8E;" width="3.9" height="23.6"/>
	<path style="fill:#8A8C8E;" d="M358.2,46.7c-0.6-0.7-1.4-1.3-2.3-1.8c-0.9-0.4-1.9-0.7-3-0.7H343v23.6h3.9v-8.1h6.2
		c1.1,0,2.1-0.2,2.9-0.7c0.9-0.4,1.6-1,2.3-1.7c0.6-0.7,1.1-1.6,1.4-2.5c0.3-0.9,0.5-1.9,0.5-2.9c0-0.9-0.2-1.9-0.5-2.8
		C359.3,48.3,358.8,47.5,358.2,46.7z M356.3,52c0,0.6-0.1,1.1-0.3,1.7c-0.2,0.5-0.4,1-0.7,1.4c-0.3,0.4-0.6,0.7-1.1,0.9
		c-0.4,0.2-0.9,0.3-1.4,0.3h-6.1v-8.4h5.9c0.5,0,0.9,0.1,1.4,0.3c0.4,0.2,0.8,0.5,1.1,0.9c0.3,0.4,0.6,0.8,0.8,1.3
		C356.2,50.9,356.3,51.4,356.3,52z"/>
	<path style="fill:#8A8C8E;" d="M396.1,47.8c-1-1.1-2.2-1.9-3.6-2.5c-1.4-0.6-3.1-0.9-5-0.9h-8.3v23.6h8.3c1.7,0,3.3-0.3,4.7-0.8
		c1.4-0.6,2.6-1.4,3.6-2.4c1-1,1.8-2.3,2.3-3.7c0.5-1.4,0.8-3.1,0.8-4.8c0-1.6-0.2-3.1-0.7-4.5C397.8,50.1,397.1,48.8,396.1,47.8z
		 M395.1,56c0,1.2-0.2,2.3-0.5,3.3c-0.3,1-0.8,1.9-1.4,2.6c-0.6,0.7-1.4,1.3-2.3,1.7c-0.9,0.4-2,0.6-3.2,0.6h-4.4V47.8h4.4
		c1.2,0,2.3,0.2,3.2,0.6c0.9,0.4,1.7,1,2.4,1.7c0.6,0.7,1.1,1.6,1.5,2.6C394.9,53.7,395.1,54.8,395.1,56z"/>
	<rect x="406.7" y="44.3" style="fill:#8A8C8E;" width="3.9" height="23.6"/>
	<path style="fill:#8A8C8E;" d="M435.2,56.5c-0.7-0.5-1.6-0.9-2.5-1.3c-1-0.3-2-0.6-3.2-0.9c-1-0.2-1.9-0.5-2.6-0.7
		c-0.7-0.2-1.3-0.4-1.7-0.7c-0.4-0.2-0.7-0.5-0.9-0.8c-0.2-0.3-0.3-0.7-0.3-1.3c0-1,0.3-1.7,1-2.3c0.7-0.6,1.9-0.9,3.5-0.9
		c0.6,0,1.3,0.1,1.8,0.2c0.6,0.1,1.1,0.3,1.6,0.5c0.5,0.2,1,0.4,1.3,0.7c0.4,0.2,0.7,0.5,0.9,0.8l0.5,0.5l1.9-3.3l-0.3-0.3
		c-1-0.8-2.1-1.5-3.4-2c-1.3-0.5-2.7-0.7-4.3-0.7c-1.2,0-2.3,0.2-3.4,0.4c-1.1,0.3-2,0.8-2.7,1.4c-0.8,0.6-1.4,1.4-1.8,2.3
		c-0.4,0.9-0.7,1.9-0.7,3.1c0,1,0.2,1.8,0.5,2.5c0.3,0.7,0.8,1.3,1.5,1.8c0.6,0.5,1.4,0.9,2.3,1.2c0.9,0.3,1.9,0.6,3.1,0.9
		c1,0.3,1.9,0.5,2.8,0.7c0.8,0.2,1.4,0.5,1.9,0.8c0.5,0.3,0.8,0.6,1.1,1c0.2,0.3,0.3,0.8,0.3,1.3c0,1-0.4,1.7-1.1,2.1
		c-0.8,0.5-2,0.8-3.5,0.8c-0.8,0-1.6-0.1-2.4-0.3c-0.8-0.2-1.5-0.4-2.1-0.7c-0.7-0.3-1.2-0.6-1.8-0.9c-0.5-0.3-0.9-0.7-1.2-1
		l-0.5-0.5l-1.9,3.4l0.3,0.3c1.3,1.1,2.8,1.9,4.4,2.5c1.6,0.6,3.3,0.8,5.1,0.8c1.2,0,2.3-0.1,3.4-0.4c1.1-0.3,2-0.7,2.8-1.2
		c0.8-0.6,1.4-1.3,1.9-2.1c0.5-0.9,0.7-1.9,0.7-3c0-1.1-0.2-2-0.6-2.8C436.5,57.7,435.9,57,435.2,56.5z"/>
	<polygon style="fill:#8A8C8E;" points="442.7,47.8 450.4,47.8 450.4,67.9 454.3,67.9 454.3,47.8 462.1,47.8 462.1,44.3 442.7,44.3 
			"/>
	<path style="fill:#8A8C8E;" d="M483.5,58.2c0.6-0.5,1.2-1,1.6-1.6c0.4-0.6,0.8-1.3,1-2.1c0.2-0.8,0.4-1.6,0.4-2.4
		c0-0.9-0.2-1.9-0.5-2.8c-0.4-0.9-0.9-1.7-1.5-2.5c-0.6-0.7-1.4-1.3-2.3-1.8c-0.9-0.4-1.9-0.7-3-0.7H469v23.6h3.9v-8.1h5.2l5.1,8.1
		h4.4L482,59C482.5,58.8,483,58.5,483.5,58.2z M481.6,55c-0.3,0.4-0.7,0.7-1.1,0.9c-0.4,0.2-0.9,0.3-1.4,0.3h-6.3v-8.4h6.1
		c0.5,0,0.9,0.1,1.3,0.3c0.4,0.2,0.8,0.5,1.1,0.9c0.3,0.4,0.6,0.8,0.8,1.3c0.2,0.5,0.3,1,0.3,1.6c0,0.6-0.1,1.1-0.3,1.6
		C482.1,54.1,481.9,54.6,481.6,55z"/>
	<rect x="495.7" y="44.3" style="fill:#8A8C8E;" width="3.9" height="23.6"/>
	<path style="fill:#8A8C8E;" d="M524.4,60.8c-0.3,0.6-0.7,1.2-1.1,1.6c-0.5,0.5-1,0.9-1.5,1.2c-0.5,0.3-1.1,0.5-1.7,0.7
		c-1.7,0.4-3.3,0.2-4.6-0.5c-0.9-0.5-1.7-1.1-2.3-1.8c-0.7-0.8-1.2-1.7-1.5-2.7c-0.4-1-0.6-2.1-0.6-3.2c0-1,0.2-2,0.5-3
		c0.3-1,0.8-1.9,1.4-2.7c0.6-0.8,1.4-1.4,2.3-1.9c1.3-0.7,3-0.9,4.7-0.5c0.5,0.1,1.1,0.3,1.6,0.6c0.5,0.3,1,0.6,1.4,1.1
		c0.4,0.4,0.8,1,1.1,1.7l0.2,0.5l3.1-2l-0.2-0.4c-0.7-1.5-1.9-2.8-3.4-3.8c-1.5-1-3.3-1.4-5.4-1.4c-1.8,0-3.4,0.3-4.8,1
		c-1.4,0.7-2.6,1.6-3.5,2.7c-1,1.1-1.7,2.4-2.2,3.8c-0.5,1.4-0.7,2.8-0.7,4.2c0,1.5,0.3,3,0.8,4.4c0.5,1.4,1.3,2.7,2.3,3.9
		c1,1.1,2.2,2.1,3.5,2.8c1.4,0.7,2.9,1.1,4.5,1.1c0.9,0,1.8-0.1,2.8-0.4c0.9-0.2,1.9-0.6,2.7-1.1c0.9-0.5,1.6-1,2.3-1.7
		c0.7-0.7,1.2-1.5,1.6-2.4l0.2-0.4l-3.3-1.8L524.4,60.8z"/>
	<polygon style="fill:#8A8C8E;" points="532.8,44.3 532.8,47.8 540.6,47.8 540.6,67.9 544.4,67.9 544.4,47.8 552.2,47.8 552.2,44.3 
			"/>
</g>
<g>
	<path style="fill:#C65427;" d="M154.5,139.3V78.5h7.7v53.9h33.9v6.8H154.5z"/>
	<path style="fill:#C65427;" d="M215.6,139.3V78.5h7.7v60.8H215.6z"/>
	<path style="fill:#C65427;" d="M291.4,123.6c0,2.3-0.5,4.5-1.4,6.4c-0.9,1.9-2.2,3.6-3.9,5c-1.6,1.4-3.5,2.4-5.7,3.2
		c-2.1,0.7-4.4,1.1-6.9,1.1h-28.9V78.5H275c2.1,0,4,0.5,5.7,1.4c1.7,0.9,3.2,2.1,4.4,3.6c1.2,1.5,2.1,3.1,2.8,5c0.7,1.9,1,3.7,1,5.6
		c0,3-0.8,5.8-2.3,8.4c-1.5,2.6-3.7,4.5-6.5,5.7c3.5,1,6.2,2.9,8.3,5.7C290.4,116.6,291.4,119.9,291.4,123.6z M252.4,85.2v20.3h19.3
		c1.4,0,2.6-0.3,3.8-0.8c1.1-0.5,2.1-1.3,3-2.2c0.8-0.9,1.5-2,2-3.2c0.5-1.2,0.7-2.5,0.7-3.9c0-1.4-0.2-2.8-0.7-4
		c-0.5-1.3-1.1-2.3-1.8-3.3c-0.8-0.9-1.7-1.6-2.8-2.1c-1.1-0.5-2.3-0.8-3.6-0.8H252.4z M283.6,122.3c0-1.4-0.2-2.7-0.7-4
		c-0.5-1.3-1.1-2.4-2-3.4c-0.8-1-1.8-1.7-3-2.3c-1.1-0.6-2.4-0.9-3.8-0.9h-21.7v20.9h21.1c1.4,0,2.7-0.3,3.9-0.9
		c1.2-0.6,2.3-1.3,3.2-2.3c0.9-0.9,1.6-2,2.1-3.3C283.3,125,283.6,123.6,283.6,122.3z"/>
	<path style="fill:#C65427;" d="M309.9,139.3V78.5h26c2.7,0,5.2,0.6,7.4,1.7c2.3,1.1,4.2,2.6,5.8,4.5c1.6,1.9,2.9,3.9,3.8,6.2
		c0.9,2.3,1.4,4.7,1.4,7.1c0,2.1-0.3,4.2-0.9,6.1s-1.5,3.8-2.6,5.4c-1.1,1.6-2.5,3-4,4.1c-1.6,1.1-3.3,2-5.3,2.5l14.7,23.3h-8.7
		l-13.9-21.8h-16.1v21.8H309.9z M317.6,110.6H336c1.6,0,3-0.3,4.3-1s2.4-1.6,3.3-2.8c0.9-1.2,1.6-2.5,2.1-4.1
		c0.5-1.5,0.8-3.1,0.8-4.8c0-1.7-0.3-3.3-0.9-4.8c-0.6-1.5-1.4-2.9-2.4-4c-1-1.2-2.2-2.1-3.5-2.7c-1.3-0.7-2.8-1-4.2-1h-17.9V110.6z
		"/>
	<path style="fill:#C65427;" d="M393.2,78.5h6.5l24.8,60.8h-8.2l-7.2-17.8h-25.5l-7.1,17.8h-8.2L393.2,78.5z M407.4,115.5l-11-28.1
		l-11.3,28.1H407.4z"/>
	<path style="fill:#C65427;" d="M441.2,139.3V78.5h26c2.7,0,5.2,0.6,7.4,1.7c2.3,1.1,4.2,2.6,5.8,4.5c1.6,1.9,2.9,3.9,3.8,6.2
		c0.9,2.3,1.4,4.7,1.4,7.1c0,2.1-0.3,4.2-0.9,6.1s-1.5,3.8-2.6,5.4c-1.1,1.6-2.5,3-4,4.1c-1.6,1.1-3.3,2-5.3,2.5l14.7,23.3h-8.7
		L465,117.5h-16.1v21.8H441.2z M448.9,110.6h18.4c1.6,0,3-0.3,4.3-1s2.4-1.6,3.3-2.8c0.9-1.2,1.6-2.5,2.1-4.1
		c0.5-1.5,0.8-3.1,0.8-4.8c0-1.7-0.3-3.3-0.9-4.8c-0.6-1.5-1.4-2.9-2.4-4c-1-1.2-2.2-2.1-3.5-2.7c-1.3-0.7-2.8-1-4.2-1h-17.9V110.6z
		"/>
	<path style="fill:#C65427;" d="M507.5,78.5l18.4,31.7l18.6-31.7h8.4l-23.1,38.6v22.2H522V117l-23-38.4H507.5z"/>
</g>
<path style="fill:#C65427;" d="M117.6,16.7c-1.8,0.3-3.7,0.6-5.5,0.9C64.7,27,27.2,64.4,17.9,111.8c-0.4,1.8-0.7,3.6-0.9,5.5
	c-0.8,5.6-1.3,11.3-1.3,17h5.5c0-5.8,0.5-11.5,1.3-17c0.3-1.8,0.6-3.7,1-5.5c9.1-44.4,44.2-79.4,88.6-88.6c1.8-0.4,3.6-0.7,5.5-1
	c5.4-0.8,11-1.3,16.6-1.3v-5.5C128.5,15.5,123,15.9,117.6,16.7z"/>
<path style="fill:#8A8C8E;" d="M0,0.2v139.6h15.8h5.5h40.2h78.1V21v-5.5V0.2H0z M112.1,134.3H66.9v-17h45.2V134.3z M112.1,111.8
	H66.9V67.1h45.2V111.8z M112.1,61.6H61.5v50.2h-38c-0.4,1.8-0.7,3.6-1,5.5h38.9v17H21.2h-5.5H5.5v-17H17c0.3-1.8,0.6-3.7,0.9-5.5
	H5.5V5.7h106.6v12c1.8-0.4,3.6-0.7,5.5-0.9V5.7h16.6v9.8v5.5v40.7h-16.6V22.3c-1.8,0.3-3.7,0.6-5.5,1V61.6z M134.2,134.3
	L134.2,134.3h-16.6v-17h16.6h0V134.3z M134.2,111.8L134.2,111.8h-16.6V67.1h16.6h0V111.8z"/>
</svg>
