<?xml version="1.0" encoding="UTF-8" standalone="no"?>
<!-- Generator: Adobe Illustrator 21.0.0, SVG Export Plug-In . SVG Version: 6.00 Build 0)  -->

<svg
   xmlns:dc="http://purl.org/dc/elements/1.1/"
   xmlns:cc="http://creativecommons.org/ns#"
   xmlns:rdf="http://www.w3.org/1999/02/22-rdf-syntax-ns#"
   xmlns:svg="http://www.w3.org/2000/svg"
   xmlns="http://www.w3.org/2000/svg"
   xmlns:sodipodi="http://sodipodi.sourceforge.net/DTD/sodipodi-0.dtd"
   xmlns:inkscape="http://www.inkscape.org/namespaces/inkscape"
   version="1.1"
   id="Layer_1"
   x="0px"
   y="0px"
   viewBox="0 0 139.6 139.6"
   xml:space="preserve"
   sodipodi:docname="stdlLogo_noText.svg"
   width="139.60001"
   height="139.60001"
   inkscape:version="0.92.4 (5da689c313, 2019-01-14)"><metadata
   id="metadata83"><rdf:RDF><cc:Work
       rdf:about=""><dc:format>image/svg+xml</dc:format><dc:type
         rdf:resource="http://purl.org/dc/dcmitype/StillImage" /><dc:title></dc:title></cc:Work></rdf:RDF></metadata><defs
   id="defs81" /><sodipodi:namedview
   pagecolor="#ffffff"
   bordercolor="#666666"
   borderopacity="1"
   objecttolerance="10"
   gridtolerance="10"
   guidetolerance="10"
   inkscape:pageopacity="0"
   inkscape:pageshadow="2"
   inkscape:window-width="1366"
   inkscape:window-height="705"
   id="namedview79"
   showgrid="false"
   fit-margin-top="0"
   fit-margin-left="0"
   fit-margin-right="0"
   fit-margin-bottom="0"
   inkscape:zoom="1.0381624"
   inkscape:cx="218.48743"
   inkscape:cy="124.47961"
   inkscape:window-x="-8"
   inkscape:window-y="-8"
   inkscape:window-maximized="1"
   inkscape:current-layer="Layer_1" />



<path
   style="fill:#c65427"
   d="m 117.6,16.5 c -1.8,0.3 -3.7,0.6 -5.5,0.9 -47.4,9.4 -84.9,46.8 -94.2,94.2 -0.4,1.8 -0.7,3.6 -0.9,5.5 -0.8,5.6 -1.3,11.3 -1.3,17 h 5.5 c 0,-5.8 0.5,-11.5 1.3,-17 0.3,-1.8 0.6,-3.7 1,-5.5 9.1,-44.4 44.2,-79.4 88.6,-88.6 1.8,-0.4 3.6,-0.7 5.5,-1 5.4,-0.8 11,-1.3 16.6,-1.3 v -5.5 c -5.7,0.1 -11.2,0.5 -16.6,1.3 z"
   id="path74"
   inkscape:connector-curvature="0" />
<path
   style="fill:#8a8c8e"
   d="m 0,0 v 139.6 h 15.8 5.5 40.2 78.1 V 20.8 15.3 0 Z M 112.1,134.1 H 66.9 v -17 h 45.2 z m 0,-22.5 H 66.9 V 66.9 h 45.2 z m 0,-50.2 H 61.5 v 50.2 h -38 c -0.4,1.8 -0.7,3.6 -1,5.5 h 38.9 v 17 H 21.2 15.7 5.5 v -17 H 17 c 0.3,-1.8 0.6,-3.7 0.9,-5.5 H 5.5 V 5.5 h 106.6 v 12 c 1.8,-0.4 3.6,-0.7 5.5,-0.9 V 5.5 h 16.6 v 9.8 5.5 40.7 H 117.6 V 22.1 c -1.8,0.3 -3.7,0.6 -5.5,1 z m 22.1,72.7 v 0 h -16.6 v -17 h 16.6 v 0 z m 0,-22.5 v 0 H 117.6 V 66.9 h 16.6 v 0 z"
   id="path76"
   inkscape:connector-curvature="0" />
</svg>